#!OML:ASF E:\emotionWalksFemale\Project 1\Capture day 1\Session 1\Female1.ASF
:FULLY-SPECIFIED
:DEGREES
79
root 8.60165 15.0795 22.6685 -170.74 -1.46281 -178
lowerback 11.9959 0.918898 2.26676
upperback -3.78168 1.6195 0.388127
thorax -10.8014 0.625407 -1.19868
lowerneck -7.5588 -3.18404 -7.31212
upperneck -7.89388 -4.12914 7.88747
head -0.880925 -2.21548 3.80569
rclavicle 7.85821e-015 -3.13086e-015
rhumerus -43.2788 8.0612 -87.2394
rradius 42.0036
rwrist 9.96972
rhand -15.0736 -54.8638
rfingers 7.12502
rthumb 11.0938 -84.5506
lclavicle 7.85821e-015 -3.13086e-015
lhumerus -49.8148 3.95895 74.356
lradius 37.9958
lwrist -8.4233
lhand -11.1259 -32.168
lfingers 7.12502
lthumb 14.8992 -2.7238
rfemur -19.3783 5.29902 27.6014
rtibia 35.6058
rfoot -25.8584 -24.9361
rtoes -7.98037
lfemur -24.2611 -5.97626 -19.6481
ltibia 43.0073
lfoot -31.8408 9.8128
ltoes -28.9114
80
root 8.59757 15.0338 22.6577 -170.452 -1.54067 -178.02
lowerback 12.521 0.88099 2.20339
upperback -3.83125 1.57323 0.356664
thorax -11.1717 0.600645 -1.19978
lowerneck -7.56426 -3.12439 -6.97047
upperneck -8.49754 -4.11773 7.69261
head -1.09091 -2.24411 3.68366
rclavicle -3.44767e-015 -1.73937e-015
rhumerus -43.5969 8.16205 -87.7253
rradius 42.3177
rwrist 9.66465
rhand -16.2925 -54.2741
rfingers 7.12502
rthumb 9.91801 -84.0205
lclavicle -3.44767e-015 -1.73937e-015
lhumerus -50.2618 4.34711 74.5101
lradius 37.7866
lwrist -8.50245
lhand -10.8202 -32.3892
lfingers 7.12502
lthumb 15.1937 -2.96703
rfemur -20.5066 4.93733 27.5899
rtibia 37.2371
rfoot -26.264 -24.8535
rtoes -7.80941
lfemur -25.1714 -5.77 -19.6868
ltibia 44.2548
lfoot -32.0219 9.58774
ltoes -28.4965
81
root 8.59561 14.9826 22.6512 -170.065 -1.63598 -178.08
lowerback 12.8665 0.835918 2.07997
upperback -3.79654 1.49919 0.312332
thorax -11.3428 0.570979 -1.16951
lowerneck -7.77989 -3.04851 -6.69569
upperneck -9.09643 -4.08285 7.61158
head -1.26125 -2.26494 3.61234
rclavicle 1.76732e-014 1.16538e-014
rhumerus -43.524 8.40442 -88.2429
rradius 42.2351
rwrist 9.28767
rhand -14.1074 -56.0748
rfingers 7.12502
rthumb 12.0255 -85.7093
lclavicle 1.76732e-014 1.16538e-014
lhumerus -50.4667 4.54655 74.8064
lradius 37.5879
lwrist -8.40133
lhand -10.4937 -32.5122
lfingers 7.12502
lthumb 15.5081 -3.11417
rfemur -21.7721 4.59669 27.5545
rtibia 38.945
rfoot -26.7784 -24.7251
rtoes -7.91168
lfemur -26.2677 -5.5334 -19.7515
ltibia 45.5828
lfoot -32.3272 9.31457
ltoes -28.5136
82
root 8.59367 14.9282 22.6438 -169.65 -1.72143 -178.112
lowerback 13.1802 0.803073 2.01331
upperback -3.76989 1.44793 0.256024
thorax -11.5015 0.547675 -1.18829
lowerneck -8.12633 -3.00926 -6.58399
upperneck -9.53447 -4.07502 7.6829
head -1.34807 -2.29242 3.61921
rclavicle -3.58744e-015 -4.32357e-015
rhumerus -43.3815 8.36278 -88.6484
rradius 42.0546
rwrist 9.27899
rhand -14.9954 -55.8186
rfingers 7.12502
rthumb 11.1691 -85.5013
lclavicle -3.58744e-015 -4.32357e-015
lhumerus -50.5973 4.82164 75.0726
lradius 37.4163
lwrist -8.59144
lhand -10.2424 -32.1957
lfingers 7.12502
lthumb 15.7502 -2.81655
rfemur -23.1064 4.26517 27.5571
rtibia 40.6931
rfoot -27.2436 -24.5316
rtoes -8.14543
lfemur -27.4701 -5.26483 -19.7757
ltibia 46.9868
lfoot -32.8136 8.59201
ltoes -27.1355
83
root 8.59095 14.8715 22.632 -169.297 -1.76438 -178.062
lowerback 13.483 0.776463 2.01789
upperback -3.73537 1.42125 0.248854
thorax -11.6439 0.532992 -1.19869
lowerneck -8.43811 -2.98102 -6.65302
upperneck -9.90718 -4.06245 7.84469
head -1.41509 -2.3104 3.69237
rclavicle -2.34193e-015 -1.06474e-014
rhumerus -43.3887 8.28652 -89.0072
rradius 42.1357
rwrist 9.44779
rhand -15.3515 -55.7469
rfingers 7.12502
rthumb 10.8257 -85.4479
lclavicle -2.34193e-015 -1.06474e-014
lhumerus -50.7296 5.18405 75.4124
lradius 37.2074
lwrist -8.65457
lhand -10.0937 -31.8601
lfingers 7.12502
lthumb 15.8934 -2.49232
rfemur -24.3949 3.94029 27.6545
rtibia 42.4488
rfoot -27.5837 -24.5156
rtoes -8.94539
lfemur -28.6072 -4.95345 -19.7273
ltibia 48.4363
lfoot -33.2394 8.04204
ltoes -26.6081
84
root 8.58747 14.8105 22.6158 -168.952 -1.8315 -178.072
lowerback 13.0869 0.780893 1.85983
upperback -3.30027 1.39404 0.324327
thorax -10.9249 0.549088 -1.00889
lowerneck -8.84379 -2.91727 -6.81781
upperneck -10.6373 -4.02911 7.98005
head -1.58743 -2.33547 3.78359
rclavicle 4.52235e-015 -2.55935e-015
rhumerus -42.7646 8.31327 -89.1769
rradius 42.2606
rwrist 9.60795
rhand -15.6469 -55.907
rfingers 7.12502
rthumb 10.5408 -85.6227
lclavicle 4.52235e-015 -2.55935e-015
lhumerus -50.2881 5.66156 75.9867
lradius 36.9174
lwrist -8.53348
lhand -9.66239 -32.1001
lfingers 7.12502
lthumb 16.3087 -2.76588
rfemur -25.6468 3.5674 27.7004
rtibia 44.202
rfoot -27.8874 -24.7586
rtoes -10.2004
lfemur -29.6942 -4.70581 -19.749
ltibia 49.9169
lfoot -33.5123 8.02011
ltoes -27.6409
85
root 8.58556 14.746 22.6008 -168.582 -1.96578 -178.144
lowerback 13.669 0.789111 1.86873
upperback -3.42686 1.41462 0.237564
thorax -11.4093 0.547267 -1.12608
lowerneck -9.02474 -2.99126 -6.72288
upperneck -10.9498 -4.1707 7.90048
head -1.65353 -2.42834 3.73753
rclavicle 1.03337e-014 -5.75233e-015
rhumerus -42.9393 7.93763 -89.488
rradius 42.2655
rwrist 9.92938
rhand -15.709 -56.0912
rfingers 7.12502
rthumb 10.4809 -85.8099
lclavicle 1.03337e-014 -5.75233e-015
lhumerus -50.6282 5.63107 76.374
lradius 36.8151
lwrist -8.61083
lhand -8.82433 -32.1964
lfingers 7.12502
lthumb 17.1155 -2.9303
rfemur -26.8789 3.16629 27.6918
rtibia 45.9668
rfoot -28.5534 -24.7664
rtoes -10.4268
lfemur -30.8023 -4.55101 -19.8155
ltibia 51.4234
lfoot -33.7871 7.84531
ltoes -28.129
